<?xml version="1.0" encoding="UTF-8" standalone="no"?>
<svg
   xmlns:dc="http://purl.org/dc/elements/1.1/"
   xmlns:cc="http://creativecommons.org/ns#"
   xmlns:rdf="http://www.w3.org/1999/02/22-rdf-syntax-ns#"
   xmlns:svg="http://www.w3.org/2000/svg"
   xmlns="http://www.w3.org/2000/svg"
   xmlns:sodipodi="http://sodipodi.sourceforge.net/DTD/sodipodi-0.dtd"
   xmlns:inkscape="http://www.inkscape.org/namespaces/inkscape"
   id="master-artboard"
   viewBox="0 0 224.28719 137.45799"
   version="1.1"
   x="0px"
   y="0px"
   width="224.28719"
   height="137.45799"
   inkscape:version="0.91 r13725"
   sodipodi:docname="fire.svg">
  <metadata
     id="metadata6036">
    <rdf:RDF>
      <cc:Work
         rdf:about="">
        <dc:format>image/svg+xml</dc:format>
        <dc:type
           rdf:resource="http://purl.org/dc/dcmitype/StillImage" />
        <dc:title></dc:title>
      </cc:Work>
    </rdf:RDF>
  </metadata>
  <defs
     id="defs6034" />
  <sodipodi:namedview
     pagecolor="#ffffff"
     bordercolor="#666666"
     borderopacity="1"
     objecttolerance="10"
     gridtolerance="10"
     guidetolerance="10"
     inkscape:pageopacity="0"
     inkscape:pageshadow="2"
     inkscape:window-width="1286"
     inkscape:window-height="764"
     id="namedview6032"
     showgrid="false"
     inkscape:zoom="0.87099222"
     inkscape:cx="204.95867"
     inkscape:cy="-60.635784"
     inkscape:window-x="0"
     inkscape:window-y="0"
     inkscape:window-maximized="0"
     inkscape:current-layer="master-artboard"
     fit-margin-top="0"
     fit-margin-left="0"
     fit-margin-right="0"
     fit-margin-bottom="0" />
  <rect
     id="ee-background"
     x="-31.090298"
     y="-179.03566"
     width="1006.6823"
     height="510.44977"
     style="fill:#ffffff;fill-opacity:0" />
  <path
     d="M 232.68553,-34.295075"
     style="fill:#314b54;fill-opacity:1;stroke:#000000;stroke-width:0;stroke-opacity:1;paint-order:fill"
     id="path5944"
     inkscape:connector-curvature="0" />
  <path
     d="M 240.51887,-28.461745"
     style="fill:#314b54;fill-opacity:1;stroke:#000000;stroke-width:0;stroke-opacity:1;paint-order:fill"
     id="path5946"
     inkscape:connector-curvature="0" />
  <path
     d="M 489.59185,135.6153"
     style="fill:#f2f7f6;fill-opacity:1;stroke:#000000;stroke-width:0;stroke-opacity:1;paint-order:fill"
     id="path5948"
     inkscape:connector-curvature="0" />
  <g
     transform="matrix(-0.72328681,1.2432918,-1.2432918,-0.72328681,1277.954,-203.52417)"
     id="g5950">
    <g
       id="g5952" />
    <g
       id="g5966" />
    <g
       id="g6589">
      <path
         id="path5974"
         style="fill:#e46756"
         d="m 608.3,674 c 0,0 18.2,-188.9 -75.6,-136.4 -93.8,52.5 75.6,136.4 75.6,136.4 z"
         class="st117"
         inkscape:connector-curvature="0" />
      <path
         id="path5976"
         style="fill:#f18d16"
         d="m 600.1,659.2 c 0,0 10.2,-165 -67.4,-121.6 -77.6,43.4 67.4,121.6 67.4,121.6 z"
         class="st119"
         inkscape:connector-curvature="0" />
    </g>
    <path
       class="st121"
       d="m 589.8,640.7 c 0,0 11.5,-141.4 -57.1,-103 -68.6,38.3 57.1,103 57.1,103 z"
       style="fill:#fcc000"
       id="path5980"
       inkscape:connector-curvature="0" />
    <path
       class="st111"
       d="m 572.5,609.4 c 0,0 19.3,-104.8 -39.8,-71.7 -59.1,33 39.8,71.7 39.8,71.7 z"
       style="fill:#ffe673"
       id="path5984"
       inkscape:connector-curvature="0" />
    <g
       id="g5986" />
    <g
       id="g5998" />
    <path
       d="m 93.400002,399 -9.300004,11.20001 11.200005,-9.30002 -11.200005,-9.29998 9.300004,11.19998 9.199998,-11.19998 -11.1,9.29998 11.1,9.30002 z"
       class="st122"
       style="clip-rule:evenodd;fill:#ffffff;fill-rule:evenodd"
       id="path6010"
       inkscape:connector-curvature="0" />
    <path
       d="M 671.29999,892.70001 662,903.90002 673.20001,894.59998 662,885.29999 671.29999,896.5 l 9.29999,-11.20001 -11.19996,9.29999 11.19996,9.30004 z"
       class="st122"
       style="clip-rule:evenodd;fill:#ffffff;fill-rule:evenodd"
       id="path6012"
       inkscape:connector-curvature="0" />
    <path
       d="m 642.5,870.90002 -10.5,1 10.5,1 -1,-10.60003 -1,10.60003 10.5,-1 -10.5,-1 1,10.59998 z"
       class="st122"
       style="clip-rule:evenodd;fill:#ffffff;fill-rule:evenodd"
       id="path6014"
       inkscape:connector-curvature="0" />
    <path
       d="m 920.70001,559 -10.5,0.90002 10.5,1 -0.90002,-10.5 -1,10.5 10.5,-1 -10.5,-0.90002 1,10.5 z"
       class="st122"
       style="clip-rule:evenodd;fill:#ffffff;fill-rule:evenodd"
       id="path6016"
       inkscape:connector-curvature="0" />
    <path
       d="m 113.1,422.79999 -10.5,1 10.5,0.90002 -0.9,-10.5 -1,10.5 10.5,-0.90002 -10.5,-1 1,10.5 z"
       class="st122"
       style="clip-rule:evenodd;fill:#ffffff;fill-rule:evenodd"
       id="path6018"
       inkscape:connector-curvature="0" />
    <path
       d="m 449.39999,893.59998 -10.5,1 10.5,1 -1,-10.59998 -0.89999,10.59998 10.5,-1 -10.5,-1 0.89999,10.60003 z"
       class="st122"
       style="clip-rule:evenodd;fill:#ffffff;fill-rule:evenodd"
       id="path6020"
       inkscape:connector-curvature="0" />
    <path
       class="st108"
       d="m 687.8,225.4 c -16.7,15 -23.4,24.8 -25.7,29.5 0.5,0 1,0 1.7,0 7.8,0 20.8,-3 37.7,-9.1 -4.7,-6.9 -8.5,-14.5 -11.3,-22.6 -0.7,0.8 -1.6,1.5 -2.4,2.2 z"
       style="fill:none"
       id="path6022"
       inkscape:connector-curvature="0" />
    <path
       class="st106"
       d="m 742,278.7 c 0,0 -0.1,0 -0.1,-0.1 0,0.1 0.1,0.1 0.1,0.1 z"
       style="fill:#dfdde3"
       id="path6024"
       inkscape:connector-curvature="0" />
    <path
       class="st106"
       d="m 738,276.9 c 0.3,0.1 0.6,0.3 0.8,0.4 0,0 0,0 0,0 -0.3,-0.1 -0.5,-0.3 -0.8,-0.4 z"
       style="fill:#dfdde3"
       id="path6026"
       inkscape:connector-curvature="0" />
    <path
       d="m 739.8,277.7 c 0.3,0.1 0.6,0.3 0.9,0.4 0.3,0.1 0.6,0.3 1,0.4 0.1,0 0.1,0.1 0.2,0.1 -1,-0.4 -2,-0.9 -3,-1.3 0.2,0.1 0.6,0.3 0.9,0.4 z"
       id="path6028"
       inkscape:connector-curvature="0" />
    <path
       d="m 737.7,276.8 c 0.1,0 0.1,0.1 0.2,0.1 0,0 0.1,0 0.1,0 -0.1,0 -0.2,-0.1 -0.3,-0.1 0,0 0,0 0,0 z"
       id="path6030"
       inkscape:connector-curvature="0" />
  </g>
  <g
     inkscape:groupmode="layer"
     id="layer5"
     inkscape:label="Layer 1"
     transform="translate(-31.09029,-179.03568)" />
</svg>
