<?xml version="1.0" encoding="utf-8"?>
<svg id="master-artboard" viewBox="0 0 1006.6822509765625 510.44976806640625" version="1.1" xmlns="http://www.w3.org/2000/svg" x="0px" y="0px" style="enable-background:new 0 0 336 235.2;" width="1006.6822509765625px" height="510.44976806640625px"><rect id="ee-background" x="0" y="0" width="1006.6822509765625" height="510.44976806640625" style="fill: white; fill-opacity: 0; pointer-events: none;"/>















































































<path d="M 89.31049346923828 47.242855072021484" style="fill: rgb(49, 75, 84); fill-opacity: 1; stroke: rgb(0, 0, 0); stroke-opacity: 1; stroke-width: 0; paint-order: fill;" transform="matrix(1, 0, 0, 1, 174.46532693505287, 97.49774423241615)"/><path d="M 97.14382934570312 53.07618713378906" style="fill: rgb(49, 75, 84); fill-opacity: 1; stroke: rgb(0, 0, 0); stroke-opacity: 1; stroke-width: 0; paint-order: fill;" transform="matrix(1, 0, 0, 1, 174.46532693505287, 97.49774423241615)"/><path d="M 345.88348388671875 217.3199005126953" style="fill: rgb(242, 247, 246); fill-opacity: 1; stroke: rgb(0, 0, 0); stroke-opacity: 1; stroke-width: 0; paint-order: fill;" transform="matrix(1, 0, 0, 1, 174.7986602783203, 97.3310775756836)"/><g transform="matrix(-0.7232868142991473, 1.2432918461068008, -1.2432918461068008, -0.7232868142991473, 1297.5631019873697, -39.41400182183993)"><g transform="matrix(1, 0, 0, 1, 0, 0)">
		<path class="st95" d="M568.4,489.6c2.7,4.9,1,11-3.9,13.7L485,547.8c-4.8,2.7-11,1-13.7-3.9l0,0c-2.7-4.9-1-11,3.9-13.7l79.5-44.5&#10;&#9;&#9;&#9;C559.6,483,565.7,484.7,568.4,489.6L568.4,489.6z" style="fill: rgb(8, 8, 8);"/>
	</g><path class="st115" d="M330.3,171.1c0,0,147.2,3.4,214.4,130.7C612,429,582.5,475.1,582.5,475.1l-63.9,35.7" style="fill: rgb(153, 152, 151);" transform="matrix(1, 0, 0, 1, 0, 0)"/><path class="st111" d="M330.3,171.1c0,0-74.6,127.5-2.3,251.9c72.3,124.4,126.8,123.6,126.8,123.6l63.9-35.7" style="fill: rgb(191, 191, 190);" transform="matrix(1, 0, 0, 1, 0, 0)"/><path class="st116" d="M448.1,204.9c-59.8-32.5-117.8-33.8-117.8-33.8s-29.4,50.2-33.4,118.4c-0.3,5.3-0.5,10.7-0.4,16.2&#10;&#9;&#9;&#9;c39.3-5.7,107.5-25.3,166.3-92.2C457.8,210.4,453,207.6,448.1,204.9z" style="fill: rgb(75, 92, 188);" transform="matrix(1, 0, 0, 1, 0, 0)"/><path class="st111" d="M381,481.7L367,560.1c0,0-4.2,10.3,12.6,22.8c16.8,12.5,97.3,71.9,97.3,71.9s3.6,0,3-4.7&#10;&#9;&#9;&#9;c0,0-55.7-76.6-16-109.8" style="fill: rgb(180, 109, 255);" transform="matrix(1, 0, 0, 1, 0, 0)"/><path class="st115" d="M567.5,377.3l73.7,29.4c0,0,10.9,1.8,12.6,22.8c1.7,20.9,9.6,120.9,9.6,120.9s-1.9,3.1-5.5,0.1&#10;&#9;&#9;&#9;c0,0-35.5-87.9-84.5-71.4" style="fill: rgb(131, 80, 186);" transform="matrix(1, 0, 0, 1, 0, 0)"/><g transform="matrix(1, 0, 0, 1, 0, 0)">
			<path class="st116" d="M352,460.9c60,86.4,102.8,85.7,102.8,85.7l63.9-35.7l63.9-35.7c0,0,23-36.2-18.3-132.7&#10;&#9;&#9;&#9;&#9;C498.2,452.3,394,461.9,352,460.9z" style="fill: rgb(212, 97, 80);"/>
		</g><path class="st117" d="M329.9,171.8c-3.5,6.3-29.3,54.2-33,117.7c-0.3,5.3-0.5,10.7-0.4,16.2c22.9-3.3,55.6-11.4,90.6-30.8&#10;&#9;&#9;&#9;L329.9,171.8z" style="fill: rgb(95, 116, 237);" transform="matrix(1, 0, 0, 1, 0, 0)"/><path class="st118" d="M456.3,265.6c17.3,31.2,6.1,70.5-24.9,87.9c-31,17.4-70.2,6.2-87.5-25c-17.3-31.2-6.1-70.5,24.9-87.9&#10;&#9;&#9;&#9;C399.9,223.3,439.1,234.5,456.3,265.6z" style="fill: rgb(163, 187, 196);" transform="matrix(1, 0, 0, 1, 0, 0)"/><path class="st117" d="M608.3,674c0,0,18.2-188.9-75.6-136.4C438.9,590.1,608.3,674,608.3,674z" style="fill: rgb(228, 103, 86);" transform="matrix(1, 0, 0, 1, 0, 0)"/><path class="st119" d="M600.1,659.2c0,0,10.2-165-67.4-121.6C455.1,581,600.1,659.2,600.1,659.2z" style="fill: rgb(241, 141, 22);" transform="matrix(1, 0, 0, 1, 0, 0)"/><path class="st120" d="M441.3,266.7c15.1,27.3,5.4,61.8-21.8,77c-27.2,15.2-61.5,5.4-76.7-21.9c-15.1-27.3-5.4-61.8,21.8-77&#10;&#9;&#9;&#9;C391.8,229.6,426.2,239.4,441.3,266.7z" style="fill: rgb(212, 244, 255);" transform="matrix(1, 0, 0, 1, 0, 0)"/><path class="st121" d="M589.8,640.7c0,0,11.5-141.4-57.1-103C464.1,576,589.8,640.7,589.8,640.7z" style="fill: rgb(252, 192, 0);" transform="matrix(1, 0, 0, 1, 0, 0)"/><path class="st95" d="M400.2,365.7c-24.8,0-47.7-13.5-59.8-35.3c-18.3-33.1-6.5-75,26.5-93.4c10.2-5.7,21.6-8.7,33.2-8.7&#10;&#9;&#9;&#9;c24.8,0,47.7,13.5,59.8,35.3c8.9,16,11,34.6,6,52.2c-5,17.6-16.5,32.3-32.5,41.2C423.2,362.7,411.8,365.7,400.2,365.7z&#10;&#9;&#9;&#9; M400.1,236.5c-10.2,0-20.3,2.7-29.3,7.7c-29.1,16.3-39.5,53.2-23.4,82.4c10.6,19.2,30.9,31.1,52.8,31.1c10.2,0,20.3-2.7,29.3-7.7&#10;&#9;&#9;&#9;c14.1-7.9,24.3-20.8,28.7-36.4c4.4-15.6,2.5-31.9-5.3-46.1C442.2,248.4,422,236.5,400.1,236.5z" style="fill: rgb(255, 255, 255);" transform="matrix(1, 0, 0, 1, 0, 0)"/><path class="st111" d="M572.5,609.4c0,0,19.3-104.8-39.8-71.7C473.6,570.7,572.5,609.4,572.5,609.4z" style="fill: rgb(255, 230, 115);" transform="matrix(1, 0, 0, 1, 0, 0)"/><g transform="matrix(1, 0, 0, 1, 0, 0)">
			<path class="st117" d="M568.2,353.7l0.9,0.5c-1.5-3.8-3.1-7.8-4.9-11.8C498.2,452.3,394,461.9,352,460.9c2.5,3.6,5,7.1,7.5,10.4&#10;&#9;&#9;&#9;&#9;l0-1.1C400.6,471.2,503.2,461.9,568.2,353.7z" style="fill: rgb(95, 116, 237);"/>
		</g><path class="st117" d="M575.1,370.6c-0.9-2.7-1.9-5.4-2.9-8.1c-25.8,41.1-56.8,67.9-87.8,85.2c-46.6,26-92.7,30.7-119.7,30.7&#10;&#9;&#9;&#9;&#9;c1.8,2.3,3.6,4.6,5.3,6.8C412.4,485.6,511.3,474.8,575.1,370.6z" style="fill: rgb(95, 116, 237);" transform="matrix(1, 0, 0, 1, 0, 0)"/><path class="st117" d="M376.8,493.1c46.6,54,78,53.5,78,53.5l63.9-35.7l63.9-35.7c0,0,16.9-26.5-4.2-94.6&#10;&#9;&#9;&#9;&#9;c-25.3,39.3-55.6,65.1-85.7,81.9C448.2,487.3,404.2,492.7,376.8,493.1z" style="fill: rgb(95, 116, 237);" transform="matrix(1, 0, 0, 1, 0, 0)"/><path class="st95" d="M572.2,362.4c-1-2.7-2-5.4-3.1-8.2l-0.9-0.5c-65,108.2-167.6,117.5-208.7,116.5l0,1.1&#10;&#9;&#9;&#9;&#9;c1.8,2.4,3.5,4.8,5.3,7c27,0,73.1-4.6,119.7-30.7C515.4,430.3,546.5,403.6,572.2,362.4z" style="fill: rgb(255, 255, 255);" transform="matrix(1, 0, 0, 1, 0, 0)"/><path class="st95" d="M370.1,485.1c2.3,2.8,4.5,5.5,6.7,8c27.4-0.4,71.4-5.8,115.9-30.6c30.1-16.8,60.4-42.6,85.7-81.9&#10;&#9;&#9;&#9;&#9;c-1-3.2-2.1-6.5-3.2-9.9C511.3,474.8,412.4,485.6,370.1,485.1z" style="fill: rgb(255, 255, 255);" transform="matrix(1, 0, 0, 1, 0, 0)"/><g transform="matrix(1, 0, 0, 1, 0, 0)">
			<path class="st116" d="M474.2,431.3l5.4,9.8c31.3-17.3,62.9-44.6,88.5-87.4l0.9,0.5c-1.5-3.8-3.1-7.8-4.9-11.8&#10;&#9;&#9;&#9;&#9;C538.1,385.9,506.1,413.6,474.2,431.3z" style="fill: rgb(75, 92, 188);"/>
		</g><path class="st116" d="M484.4,447.6c-0.3,0.2-0.6,0.3-0.9,0.5l4.3,7.7c30.8-17.1,61.8-43.8,87.3-85.3c-0.9-2.7-1.9-5.4-2.9-8.1&#10;&#9;&#9;&#9;&#9;C546.5,403.6,515.4,430.3,484.4,447.6z" style="fill: rgb(75, 92, 188);" transform="matrix(1, 0, 0, 1, 0, 0)"/><path class="st116" d="M492.6,462.5c-0.3,0.2-0.6,0.3-0.9,0.5l26.6,48.1l64.1-35.9c0,0,16.9-26.5-4.2-94.6&#10;&#9;&#9;&#9;&#9;C553,419.8,522.8,445.6,492.6,462.5z" style="fill: rgb(75, 92, 188);" transform="matrix(1, 0, 0, 1, 0, 0)"/><path class="st95" d="M568.2,353.7c-25.7,42.7-57.2,70-88.5,87.4l3.9,7c0.3-0.2,0.6-0.3,0.9-0.5c30.9-17.3,62-44.1,87.8-85.2&#10;&#9;&#9;&#9;&#9;c-1-2.7-2-5.4-3.1-8.2L568.2,353.7z" style="fill: rgb(255, 255, 255);" transform="matrix(1, 0, 0, 1, 0, 0)"/><path class="st95" d="M487.9,455.9l3.9,7.1c0.3-0.2,0.6-0.3,0.9-0.5c30.1-16.8,60.4-42.6,85.7-81.9c-1-3.2-2.1-6.5-3.2-9.9&#10;&#9;&#9;&#9;&#9;C549.7,412.1,518.7,438.8,487.9,455.9z" style="fill: rgb(255, 255, 255);" transform="matrix(1, 0, 0, 1, 0, 0)"/><path d="M 93.4000015258789 399 L 84.0999984741211 410.20001220703125 L 95.30000305175781 400.8999938964844 L 84.0999984741211 391.6000061035156 L 93.4000015258789 402.79998779296875 L 102.5999984741211 391.6000061035156 L 91.5 400.8999938964844 L 102.5999984741211 410.20001220703125 Z" class="st122" style="fill-rule: evenodd; clip-rule: evenodd; fill: rgb(255, 255, 255);" transform="matrix(1, 0, 0, 1, 0, 0)"/><path d="M 671.2999877929688 892.7000122070312 L 662 903.9000244140625 L 673.2000122070312 894.5999755859375 L 662 885.2999877929688 L 671.2999877929688 896.5 L 680.5999755859375 885.2999877929688 L 669.4000244140625 894.5999755859375 L 680.5999755859375 903.9000244140625 Z" class="st122" style="fill-rule: evenodd; clip-rule: evenodd; fill: rgb(255, 255, 255);" transform="matrix(1, 0, 0, 1, 0, 0)"/><path d="M 642.5 870.9000244140625 L 632 871.9000244140625 L 642.5 872.9000244140625 L 641.5 862.2999877929688 L 640.5 872.9000244140625 L 651 871.9000244140625 L 640.5 870.9000244140625 L 641.5 881.5 Z" class="st122" style="fill-rule: evenodd; clip-rule: evenodd; fill: rgb(255, 255, 255);" transform="matrix(1, 0, 0, 1, 0, 0)"/><path d="M 920.7000122070312 559 L 910.2000122070312 559.9000244140625 L 920.7000122070312 560.9000244140625 L 919.7999877929688 550.4000244140625 L 918.7999877929688 560.9000244140625 L 929.2999877929688 559.9000244140625 L 918.7999877929688 559 L 919.7999877929688 569.5 Z" class="st122" style="fill-rule: evenodd; clip-rule: evenodd; fill: rgb(255, 255, 255);" transform="matrix(1, 0, 0, 1, 0, 0)"/><path d="M 113.0999984741211 422.79998779296875 L 102.5999984741211 423.79998779296875 L 113.0999984741211 424.70001220703125 L 112.19999694824219 414.20001220703125 L 111.19999694824219 424.70001220703125 L 121.69999694824219 423.79998779296875 L 111.19999694824219 422.79998779296875 L 112.19999694824219 433.29998779296875 Z" class="st122" style="fill-rule: evenodd; clip-rule: evenodd; fill: rgb(255, 255, 255);" transform="matrix(1, 0, 0, 1, 0, 0)"/><path d="M 449.3999938964844 893.5999755859375 L 438.8999938964844 894.5999755859375 L 449.3999938964844 895.5999755859375 L 448.3999938964844 885 L 447.5 895.5999755859375 L 458 894.5999755859375 L 447.5 893.5999755859375 L 448.3999938964844 904.2000122070312 Z" class="st122" style="fill-rule: evenodd; clip-rule: evenodd; fill: rgb(255, 255, 255);" transform="matrix(1, 0, 0, 1, 0, 0)"/><path class="st108" d="M687.8,225.4c-16.7,15-23.4,24.8-25.7,29.5c0.5,0,1,0,1.7,0c7.8,0,20.8-3,37.7-9.1&#10;&#9;&#9;c-4.7-6.9-8.5-14.5-11.3-22.6C689.5,224,688.6,224.7,687.8,225.4z" style="fill: none;" transform="matrix(1, 0, 0, 1, 0, 0)"/><path class="st106" d="M742,278.7c0,0-0.1,0-0.1-0.1C741.9,278.7,742,278.7,742,278.7z" style="fill: rgb(223, 221, 227);" transform="matrix(1, 0, 0, 1, 0, 0)"/><path class="st106" d="M738,276.9c0.3,0.1,0.6,0.3,0.8,0.4c0,0,0,0,0,0C738.5,277.2,738.3,277,738,276.9z" style="fill: rgb(223, 221, 227);" transform="matrix(1, 0, 0, 1, 0, 0)"/><path d="M739.8,277.7c0.3,0.1,0.6,0.3,0.9,0.4c0.3,0.1,0.6,0.3,1,0.4c0.1,0,0.1,0.1,0.2,0.1c-1-0.4-2-0.9-3-1.3&#10;&#9;&#9;C739.1,277.4,739.5,277.6,739.8,277.7z" transform="matrix(1, 0, 0, 1, 0, 0)"/><path d="M737.7,276.8c0.1,0,0.1,0.1,0.2,0.1c0,0,0.1,0,0.1,0C737.9,276.9,737.8,276.8,737.7,276.8&#10;&#9;&#9;C737.7,276.8,737.7,276.8,737.7,276.8z" transform="matrix(1, 0, 0, 1, 0, 0)"/></g></svg>